<svg width="128" height="146" viewBox="0 0 128 146" fill="none" xmlns="http://www.w3.org/2000/svg">
<path d="M88.4893 85.8777C93.7772 80.9768 97.2355 74.624 98.4907 67.5059C100.03 58.7784 98.0492 49.9935 92.9144 42.7693C87.7805 35.5466 80.1275 30.7856 71.3767 29.3726C62.8969 28.0009 54.3292 29.9898 47.2517 34.9731C40.1745 39.9563 35.4132 47.3523 33.8447 55.7983C32.5001 63.0389 33.569 70.3152 36.9355 76.8407C42.4009 87.4341 44.3007 99.5648 42.2847 110.998L40.0788 123.509C39.1003 129.058 42.8188 134.369 48.3681 135.347L57.729 136.998C63.2783 137.976 68.589 134.257 69.5674 128.708L71.7732 116.199C73.8117 104.639 79.5645 94.149 88.4893 85.8777ZM40.6785 74.9099C37.7445 69.223 36.8132 62.8803 37.9854 56.5674C40.8018 41.4017 55.4792 31.0673 70.7041 33.5303C78.3408 34.7714 85.0061 38.9132 89.4814 45.2097C93.9581 51.5076 95.6845 59.1664 94.343 66.7748C93.2488 72.9802 90.2347 78.5178 85.6264 82.789C76.2227 91.5044 70.045 102.517 67.7269 114.681L46.5639 110.949C48.5197 98.8439 46.44 86.0773 40.6785 74.9099ZM44.4742 122.834L44.7703 121.156L65.5358 127.321L65.42 127.977C65.3591 128.323 65.2638 128.653 65.1487 128.972L44.4742 122.834ZM45.5064 116.981L45.8384 115.098L67.032 118.835L66.2719 123.146L45.5064 116.981ZM49.0994 131.2C46.8715 130.807 45.1475 129.226 44.4601 127.223L61.9529 132.417C60.8938 132.892 59.6872 133.066 58.4607 132.85L49.0994 131.199L49.0994 131.2Z" fill="#EC8209"/>
<path d="M45.0833 61.3053C45.113 60.1915 45.2324 59.063 45.4389 57.9515C45.6514 56.8081 44.8966 55.7091 43.7532 55.4966C42.6174 55.2861 41.5107 56.0389 41.2982 57.1824C41.0515 58.5102 40.9085 59.8598 40.8732 61.1938C40.8451 62.2501 41.5997 63.1452 42.61 63.3234C42.7118 63.3413 42.8162 63.352 42.9226 63.3548C44.0851 63.3853 45.0525 62.4679 45.0833 61.3053Z" fill="#EC8209"/>
<path d="M51.7332 94.9577C51.9478 94.9956 52.1722 95.0003 52.3998 94.9678C53.5509 94.8018 54.3496 93.7341 54.1836 92.5832C53.1177 85.1886 50.8405 78.0728 47.4152 71.434C46.8491 70.3366 46.378 69.191 46.0153 68.0285C45.6688 66.9182 44.4878 66.2994 43.3775 66.6459C42.2675 66.9925 41.6485 68.1734 41.995 69.2837C42.4305 70.6782 42.9946 72.0513 43.6725 73.3651C46.8823 79.5865 49.0163 86.2545 50.0152 93.1839C50.1483 94.1075 50.8617 94.8041 51.7332 94.9577Z" fill="#EC8209"/>
<path d="M86.6789 72.7452C85.7069 72.1066 84.4011 72.377 83.7627 73.3489C82.8367 74.7589 81.7298 76.0642 80.473 77.2288C79.62 78.0192 79.5695 79.3518 80.3599 80.2048C80.6845 80.5551 81.1005 80.7698 81.5371 80.8468C82.164 80.9574 82.8332 80.7837 83.336 80.3175C84.842 78.9218 86.1697 77.3551 87.2826 75.6614C87.9212 74.6895 87.6511 73.3837 86.6789 72.7452Z" fill="#EC8209"/>
<path d="M69.7971 41.0654C81.2313 43.0816 88.8933 54.0244 86.8772 65.4587C86.7625 66.1087 86.6172 66.7585 86.4451 67.3899C86.1395 68.5121 86.801 69.6694 87.9231 69.9753C87.9865 69.9924 88.0499 70.0068 88.1135 70.018C89.1733 70.2048 90.22 69.556 90.5085 68.4973C90.714 67.7423 90.8879 66.9662 91.0248 66.19C93.4442 52.4688 84.2496 39.3372 70.5284 36.9178C69.3831 36.7158 68.2909 37.4806 68.0889 38.6259C67.887 39.7712 68.6518 40.8635 69.7971 41.0654Z" fill="#EC8209"/>
<path d="M72.4756 25.8745C73.6209 26.0765 74.7132 25.3117 74.9151 24.1664L76.9629 12.553C77.1648 11.4077 76.4 10.3154 75.2547 10.1135C74.1094 9.91153 73.0172 10.6763 72.8152 11.8216L70.7675 23.435C70.5655 24.5803 71.3303 25.6726 72.4756 25.8745Z" fill="#EC8209"/>
<path d="M50.7726 26.273C51.0396 27.0063 51.6709 27.5011 52.3876 27.6275C52.7393 27.6895 53.1118 27.6628 53.4716 27.5318C54.5644 27.134 55.1282 25.9257 54.7304 24.8328L50.6992 13.7556C50.3013 12.6624 49.0931 12.099 48.0003 12.4968C46.9075 12.8945 46.3437 14.1029 46.7415 15.1957L50.7726 26.273Z" fill="#EC8209"/>
<path d="M106.306 93.1704L97.2756 85.5937C96.3845 84.8459 95.0562 84.9623 94.3089 85.8535C93.5614 86.7444 93.6775 88.0727 94.5687 88.8202L103.599 96.397C103.892 96.6431 104.233 96.7955 104.585 96.8576C105.302 96.984 106.065 96.7347 106.566 96.1372C107.313 95.2463 107.197 93.918 106.306 93.1704Z" fill="#EC8209"/>
<path d="M25.8473 31.1571L34.8778 38.7338C35.1711 38.9799 35.5118 39.1324 35.8638 39.1944C36.5805 39.3208 37.3432 39.0715 37.8446 38.474C38.5921 37.5831 38.4759 36.2548 37.5848 35.5073L28.5543 27.9306C27.6635 27.1827 26.3351 27.2992 25.5876 28.1903C24.84 29.0812 24.9563 30.4092 25.8473 31.1571Z" fill="#EC8209"/>
<path d="M116.419 68.9019L104.805 66.8542C103.66 66.6522 102.568 67.417 102.366 68.5623C102.164 69.7076 102.929 70.7999 104.074 71.0018L115.687 73.0496C116.833 73.2515 117.925 72.4867 118.127 71.3414C118.329 70.1961 117.564 69.1039 116.419 68.9019Z" fill="#EC8209"/>
<path d="M29.7875 55.7648C29.9895 54.6195 29.2247 53.5273 28.0794 53.3254L16.466 51.2776C15.3207 51.0756 14.2285 51.8404 14.0265 52.9857C13.8246 54.131 14.5894 55.2233 15.7347 55.4252L27.3481 57.473C28.4936 57.675 29.5856 56.9101 29.7875 55.7648Z" fill="#EC8209"/>
<path d="M102.324 50.9131C102.675 50.9751 103.048 50.9484 103.408 50.8174L114.485 46.7863C115.578 46.3885 116.141 45.1801 115.744 44.0873C115.346 42.9945 114.137 42.4307 113.045 42.8285L101.967 46.8597C100.875 47.2574 100.311 48.4658 100.709 49.5586C100.975 50.2916 101.607 50.7868 102.324 50.9131Z" fill="#EC8209"/>
<path d="M28.7459 73.5101L17.6686 77.5412C16.5758 77.939 16.012 79.1474 16.4098 80.2402C16.6765 80.9732 17.308 81.4683 18.0247 81.5947C18.3764 81.6567 18.7489 81.63 19.1087 81.499L30.186 77.4678C31.2788 77.0701 31.8426 75.8617 31.4448 74.7689C31.0474 73.6758 29.8381 73.1122 28.7459 73.5101Z" fill="#EC8209"/>
<path d="M89.7665 33.9316C90.0598 34.1777 90.4004 34.3302 90.7524 34.3922C91.4692 34.5186 92.2319 34.2693 92.7332 33.6718L100.31 24.6413C101.057 23.7504 100.941 22.4221 100.05 21.6746C99.1596 20.9271 97.831 21.0432 97.0834 21.9344L89.5067 30.9648C88.7592 31.8557 88.8757 33.184 89.7665 33.9316Z" fill="#EC8209"/>
</svg>
